<svg id="Layer_1" data-name="Layer 1" xmlns="http://www.w3.org/2000/svg" xmlns:xlink="http://www.w3.org/1999/xlink" viewBox="0 0 334.57 118.96"><defs><style>.cls-1{fill:url(#linear-gradient);}.cls-2{fill:url(#linear-gradient-2);}.cls-3{fill:url(#linear-gradient-3);}.cls-4{fill:url(#linear-gradient-4);}.cls-5{fill:url(#linear-gradient-5);}.cls-6{fill:url(#linear-gradient-6);}.cls-7{fill:url(#linear-gradient-7);}.cls-8{fill:url(#linear-gradient-8);}.cls-9{fill:url(#linear-gradient-9);}.cls-10{font-size:14.8px;fill:#3c3c3b;font-family:Poppins-Bold, Poppins;font-weight:700;}.cls-11{fill:url(#linear-gradient-10);}.cls-12{fill:url(#linear-gradient-11);}.cls-13{fill:url(#linear-gradient-12);}.cls-14{fill:url(#linear-gradient-13);}.cls-15{fill:url(#linear-gradient-14);}.cls-16{fill:url(#linear-gradient-15);}.cls-17{fill:url(#linear-gradient-16);}.cls-18{fill:url(#linear-gradient-17);}.cls-19{fill:url(#linear-gradient-18);}.cls-20{fill:url(#linear-gradient-19);}.cls-21{fill:url(#linear-gradient-20);}.cls-22{fill:url(#linear-gradient-21);}.cls-23{fill:url(#radial-gradient);}.cls-24{fill:url(#linear-gradient-22);}.cls-25{fill:url(#linear-gradient-23);}</style><linearGradient id="linear-gradient" x1="26.85" y1="56.27" x2="41.81" y2="56.27" gradientUnits="userSpaceOnUse"><stop offset="0.01" stop-color="#008ed5"/><stop offset="0.43" stop-color="#005092"/><stop offset="0.64" stop-color="#1f235a"/><stop offset="1" stop-color="#1b1f3f"/></linearGradient><linearGradient id="linear-gradient-2" x1="21.24" y1="51.04" x2="36.02" y2="51.04" xlink:href="#linear-gradient"/><linearGradient id="linear-gradient-3" x1="17.45" y1="45.98" x2="34.12" y2="45.98" xlink:href="#linear-gradient"/><linearGradient id="linear-gradient-4" x1="13.21" y1="40.94" x2="34.21" y2="40.94" xlink:href="#linear-gradient"/><linearGradient id="linear-gradient-5" x1="7.17" y1="35.91" x2="35.69" y2="35.91" xlink:href="#linear-gradient"/><linearGradient id="linear-gradient-6" x1="13.21" y1="30.86" x2="38" y2="30.86" xlink:href="#linear-gradient"/><linearGradient id="linear-gradient-7" x1="17.45" y1="25.81" x2="41.35" y2="25.81" xlink:href="#linear-gradient"/><linearGradient id="linear-gradient-8" x1="21.24" y1="20.74" x2="46.4" y2="20.74" xlink:href="#linear-gradient"/><linearGradient id="linear-gradient-9" x1="26.85" y1="15.21" x2="56.65" y2="15.21" xlink:href="#linear-gradient"/><linearGradient id="linear-gradient-10" x1="24.48" y1="51.92" x2="130.59" y2="51.92" gradientUnits="userSpaceOnUse"><stop offset="0.01" stop-color="#008ed5"/><stop offset="0.27" stop-color="#005092"/><stop offset="0.64" stop-color="#1f235a"/><stop offset="0.97" stop-color="#1b1f3f"/></linearGradient><linearGradient id="linear-gradient-11" x1="115.1" y1="51.92" x2="162.46" y2="51.92" xlink:href="#linear-gradient-10"/><linearGradient id="linear-gradient-12" x1="146.41" y1="51.92" x2="250.42" y2="51.92" xlink:href="#linear-gradient-10"/><linearGradient id="linear-gradient-13" x1="223.2" y1="51.09" x2="322.77" y2="51.09" xlink:href="#linear-gradient-10"/><linearGradient id="linear-gradient-14" x1="24.48" y1="72.13" x2="130.59" y2="72.13" xlink:href="#linear-gradient-10"/><linearGradient id="linear-gradient-15" x1="17.3" y1="72.13" x2="332.43" y2="72.13" xlink:href="#linear-gradient-10"/><linearGradient id="linear-gradient-16" x1="115.1" y1="69.87" x2="162.46" y2="69.87" xlink:href="#linear-gradient-10"/><linearGradient id="linear-gradient-17" x1="17.3" y1="69.87" x2="332.43" y2="69.87" xlink:href="#linear-gradient-10"/><linearGradient id="linear-gradient-18" x1="146.41" y1="68" x2="250.42" y2="68" xlink:href="#linear-gradient-10"/><linearGradient id="linear-gradient-19" x1="17.3" y1="68" x2="332.43" y2="68" xlink:href="#linear-gradient-10"/><linearGradient id="linear-gradient-20" x1="223.2" y1="65.52" x2="322.77" y2="65.52" xlink:href="#linear-gradient-10"/><linearGradient id="linear-gradient-21" x1="17.3" y1="65.52" x2="332.43" y2="65.52" xlink:href="#linear-gradient-10"/><radialGradient id="radial-gradient" cx="58.25" cy="36.9" r="23.34" gradientUnits="userSpaceOnUse"><stop offset="0" stop-color="#fff"/><stop offset="0.84" stop-color="#005eaa"/></radialGradient><linearGradient id="linear-gradient-22" x1="300.38" y1="47.22" x2="325.23" y2="47.22" xlink:href="#radial-gradient"/><linearGradient id="linear-gradient-23" x1="319.95" y1="86.72" x2="323.12" y2="86.72" gradientUnits="userSpaceOnUse"><stop offset="0.01" stop-color="#008ed5"/><stop offset="0.25" stop-color="#1b1f3f"/></linearGradient></defs><path class="cls-1" d="M26.85,56l15,1.29a13.34,13.34,0,0,1-3-2Z"/><path class="cls-2" d="M21.24,50.94l14.78.9a13.45,13.45,0,0,1-.84-1.6Z"/><path class="cls-3" d="M17.45,45.9l16.67.91c-.1-.53-.17-1.08-.22-1.65Z"/><path class="cls-4" d="M13.21,40.86l20.74,1A18.44,18.44,0,0,1,34.21,40Z"/><path class="cls-5" d="M7.17,35.82,34.94,37c.22-.71.47-1.44.75-2.18Z"/><path class="cls-6" d="M13.21,30.78l23.7,1.16c.35-.75.72-1.47,1.09-2.16Z"/><path class="cls-7" d="M17.45,25.74,39.71,27c.53-.8,1.08-1.57,1.64-2.29Z"/><path class="cls-8" d="M46.4,19.43,21.24,20.7l22.35,1.36A34.16,34.16,0,0,1,46.4,19.43Z"/><path class="cls-9" d="M26.85,15.66,49.75,17a22.31,22.31,0,0,1,6.9-3.51Z"/><text class="cls-10" transform="translate(24.48 106.26)">Sistem Informasi Persuratan Akademik</text><path class="cls-11" d="M123.39,34.33H69.61a10.06,10.06,0,0,0-3.07.39,7.51,7.51,0,0,0-2.1,1.05,8.15,8.15,0,0,0-2.95,3.87,3.77,3.77,0,0,0,.43,4,2.76,2.76,0,0,0,1.3.83,9.22,9.22,0,0,0,2.61.27H98.69q6.3,0,10,1.83a13,13,0,0,1,5.57,4.92,15.62,15.62,0,0,1,2.12,7.08A20.52,20.52,0,0,1,115.05,67a30,30,0,0,1-4.36,7.86,40.67,40.67,0,0,1-6.49,6.75,36.89,36.89,0,0,1-9.74,5.64,32.67,32.67,0,0,1-12,2.1h-58l7-19.14H85.89a11.9,11.9,0,0,0,3.77-.5,8.23,8.23,0,0,0,2.55-1.38,7.9,7.9,0,0,0,2.47-3.43,4.37,4.37,0,0,0-.1-4,2.63,2.63,0,0,0-1.47-1.28,10.13,10.13,0,0,0-3.24-.38H59.45q-7.53,0-11.45-1.83a12.8,12.8,0,0,1-5.79-4.92,15.14,15.14,0,0,1-2.09-7,21.48,21.48,0,0,1,1.46-8.57,30.15,30.15,0,0,1,4.82-8.52,39.39,39.39,0,0,1,7.28-7.08A34,34,0,0,1,63,16.35a38.92,38.92,0,0,1,12.73-1.82h54.87Z"/><path class="cls-12" d="M162.46,14.53,135.24,89.32H115.1l27.22-74.79Z"/><path class="cls-13" d="M228.07,14.53q8,0,12.55,2.15a16.27,16.27,0,0,1,7,5.92,18.78,18.78,0,0,1,2.78,9.08,26.63,26.63,0,0,1-1.73,10.84,38,38,0,0,1-5.2,9.57,48.77,48.77,0,0,1-7.85,8.35,45.16,45.16,0,0,1-12.42,7.36,41.71,41.71,0,0,1-15.48,2.71H173.28l-6.84,18.81h-20l25.53-70.15a6.45,6.45,0,0,1,6.56-4.64ZM214.82,52.15a15.55,15.55,0,0,0,5.71-.95,13.62,13.62,0,0,0,4.21-2.59,13,13,0,0,0,3.7-5.32,7.63,7.63,0,0,0,.17-5.64,4.86,4.86,0,0,0-2.37-2.43,11.09,11.09,0,0,0-4.94-.89H187.89a2,2,0,0,0-2,1.55L180,52.15Z"/><path class="cls-14" d="M322.65,86a12.47,12.47,0,0,1,.12,1.66c0,.52,0,1.07-.11,1.66H300.09q.06-.76.06-1.38c0-.41,0-.79,0-1.16l-.68-9.08H255.19l-7.13,9L247.13,88a12.81,12.81,0,0,0-.81,1.33H223.2c.36-.59.72-1.14,1.1-1.66s.81-1.07,1.32-1.66L274,26.7a40.87,40.87,0,0,1,12.19-10.4,30.41,30.41,0,0,1,14.53-3.43q7.86,0,11.86,3.43t4.68,10.4Zm-24.5-24.78-1.76-26.78a2.46,2.46,0,0,0-.8-1.77,2.73,2.73,0,0,0-1.79-.55,4.9,4.9,0,0,0-2.06.5,6,6,0,0,0-2.1,1.82L268.5,61.22Z"/><path class="cls-15" d="M93.11,59.61a2.63,2.63,0,0,1,1.47,1.28,4.37,4.37,0,0,1,.1,4,7.9,7.9,0,0,1-2.47,3.43,8.23,8.23,0,0,1-2.55,1.38,11.9,11.9,0,0,1-3.77.5H31.45l-7,19.14h58a32.67,32.67,0,0,0,12-2.1,36.89,36.89,0,0,0,9.74-5.64,40.67,40.67,0,0,0,6.49-6.75A30,30,0,0,0,115.05,67a20.52,20.52,0,0,0,1.34-8.41,16.79,16.79,0,0,0-.63-3.63l-32.12,4.3h6.23A10.13,10.13,0,0,1,93.11,59.61Z"/><path class="cls-16" d="M93.11,59.61a2.63,2.63,0,0,1,1.47,1.28,4.37,4.37,0,0,1,.1,4,7.9,7.9,0,0,1-2.47,3.43,8.23,8.23,0,0,1-2.55,1.38,11.9,11.9,0,0,1-3.77.5H31.45l-7,19.14h58a32.67,32.67,0,0,0,12-2.1,36.89,36.89,0,0,0,9.74-5.64,40.67,40.67,0,0,0,6.49-6.75A30,30,0,0,0,115.05,67a20.52,20.52,0,0,0,1.34-8.41,16.79,16.79,0,0,0-.63-3.63l-32.12,4.3h6.23A10.13,10.13,0,0,1,93.11,59.61Z"/><polygon class="cls-17" points="135.24 89.32 149.39 50.43 128.22 53.26 115.1 89.32 135.24 89.32"/><polygon class="cls-18" points="135.24 89.32 149.39 50.43 128.22 53.26 115.1 89.32 135.24 89.32"/><path class="cls-19" d="M166.44,89.32l6.84-18.81h34.41a41.71,41.71,0,0,0,15.48-2.71,45.16,45.16,0,0,0,12.42-7.36,48.77,48.77,0,0,0,7.85-8.35c.51-.69,1-1.38,1.43-2.08l-77.3,8.69,9.91-12-16.34,2.19L146.41,89.32Z"/><path class="cls-20" d="M166.44,89.32l6.84-18.81h34.41a41.71,41.71,0,0,0,15.48-2.71,45.16,45.16,0,0,0,12.42-7.36,48.77,48.77,0,0,0,7.85-8.35c.51-.69,1-1.38,1.43-2.08l-77.3,8.69,9.91-12-16.34,2.19L146.41,89.32Z"/><path class="cls-21" d="M224.3,87.66c-.38.52-.74,1.07-1.1,1.66h23.12a12.81,12.81,0,0,1,.81-1.33l.93-1.32,7.13-9h44.26l.68,9.08c0,.37,0,.75,0,1.16s0,.87-.06,1.38h22.57c.07-.59.1-1.14.11-1.66a12.47,12.47,0,0,0-.12-1.66l-4-44.27L297,44.15l1.12,17.07H268.5l12-15.21L256,48.76,225.62,86C225.11,86.59,224.67,87.15,224.3,87.66Z"/><path class="cls-22" d="M224.3,87.66c-.38.52-.74,1.07-1.1,1.66h23.12a12.81,12.81,0,0,1,.81-1.33l.93-1.32,7.13-9h44.26l.68,9.08c0,.37,0,.75,0,1.16s0,.87-.06,1.38h22.57c.07-.59.1-1.14.11-1.66a12.47,12.47,0,0,0-.12-1.66l-4-44.27L297,44.15l1.12,17.07H268.5l12-15.21L256,48.76,225.62,86C225.11,86.59,224.67,87.15,224.3,87.66Z"/><path class="cls-23" d="M79.37,17.53A50,50,0,0,0,58.2,21.44,36.38,36.38,0,0,0,53.49,24a30.41,30.41,0,0,0-4.15,3.35,26.71,26.71,0,0,0-5.94,8.87,24,24,0,0,0-2,10.53A10.86,10.86,0,0,0,43,51.67a11.53,11.53,0,0,0,3.85,3.62,28.26,28.26,0,0,0,10.63,3.27,92,92,0,0,0,11.39.67,93.36,93.36,0,0,1-11.47.09,29.28,29.28,0,0,1-11.3-2.69,13.42,13.42,0,0,1-4.67-3.86,13,13,0,0,1-2.32-5.72,20.92,20.92,0,0,1,0-6.07,34.1,34.1,0,0,1,1.38-5.81A29.77,29.77,0,0,1,46.6,24.75a32.46,32.46,0,0,1,4.48-4.13,39.57,39.57,0,0,1,5.13-3.24,48.83,48.83,0,0,1,11.26-4.19,59.86,59.86,0,0,1,11.9-1.66Z"/><path class="cls-24" d="M300.7,12.87a18.54,18.54,0,0,1,6.7.53,14.07,14.07,0,0,1,6,3.26,8.41,8.41,0,0,1,1.19,1.27l.57.67a7.11,7.11,0,0,1,.47.74c.29.5.62,1,.88,1.52l.66,1.62a8.11,8.11,0,0,1,.31.82l.21.85.41,1.7c.17,1.14.26,2.3.4,3.45v-.07l6.74,51.89-6,.54-2.78-52.25v-.07h0c0-1.07,0-2.15-.12-3.23l-.27-1.58-.12-.8c-.05-.26-.16-.51-.23-.77l-.48-1.53c-.21-.49-.47-1-.71-1.43a4.34,4.34,0,0,0-.37-.71l-.47-.65a7.57,7.57,0,0,0-1-1.25,13.27,13.27,0,0,0-5.43-3.5A18.59,18.59,0,0,0,300.7,12.87Z"/><polygon class="cls-25" points="322.46 84.13 323.02 89.32 322.21 89.32 322.02 84.42 322.46 84.13"/></svg>